<?xml version="1.0" standalone="no"?>
<!DOCTYPE svg PUBLIC "-//W3C//DTD SVG 20010904//EN"
 "http://www.w3.org/TR/2001/REC-SVG-20010904/DTD/svg10.dtd">
<svg version="1.0" xmlns="http://www.w3.org/2000/svg"
 width="476.000000pt" height="646.000000pt" viewBox="0 0 476.000000 646.000000"
 preserveAspectRatio="xMidYMid meet">
<metadata>
Created by potrace 1.16, written by Peter Selinger 2001-2019
</metadata>
<g transform="translate(0.000000,646.000000) scale(0.100000,-0.100000)"
fill="#000000" stroke="none">
<path d="M0 3230 l0 -3230 2380 0 2380 0 0 3230 0 3230 -2380 0 -2380 0 0
-3230z m2267 3204 c24 -12 42 -32 60 -68 14 -28 44 -71 65 -96 22 -25 53 -70
69 -101 30 -60 59 -79 124 -79 51 0 125 -27 195 -70 74 -45 94 -48 166 -20 41
15 66 18 123 13 l72 -6 83 57 c81 56 85 57 157 59 132 4 172 -33 151 -141 -12
-66 -10 -69 97 -134 74 -45 107 -102 95 -165 -6 -35 -64 -153 -147 -300 l-35
-62 228 -3 c212 -3 230 -4 250 -23 42 -38 42 -55 0 -233 -118 -499 -280 -1123
-304 -1174 -31 -65 -104 -137 -162 -158 -33 -13 -200 -15 -1104 -17 -586 -1
-1068 -2 -1072 -3 -11 0 29 -118 52 -150 12 -17 41 -43 64 -58 l41 -27 973 -5
974 -5 19 -24 c26 -31 25 -91 -2 -125 -19 -24 -27 -26 -90 -26 -38 0 -69 -1
-69 -3 0 -2 9 -22 20 -45 109 -225 -22 -478 -271 -525 -174 -32 -377 112 -395
281 -3 26 -7 53 -10 60 -7 23 15 138 36 186 l19 46 -290 0 -289 0 19 -37 c28
-55 51 -141 51 -188 0 -92 -46 -192 -118 -257 -179 -162 -454 -112 -566 103
-23 45 -29 71 -33 149 -5 85 -3 102 21 163 27 73 28 71 -35 81 -54 9 -150 76
-193 134 -40 56 -77 157 -131 367 -19 72 -39 145 -44 163 -5 18 -10 33 -9 35
0 4 -21 87 -48 184 -14 51 -27 101 -29 110 -8 33 -46 178 -71 263 -13 47 -30
110 -38 140 -8 30 -29 109 -46 174 -18 66 -33 127 -35 135 -3 17 -52 190 -86
306 -25 83 -80 146 -144 164 -24 6 -133 11 -273 11 l-234 0 -29 29 c-50 50
-31 130 35 147 13 3 144 4 292 1 296 -4 312 -7 391 -66 63 -48 109 -118 135
-208 l22 -73 408 0 407 0 -19 43 c-38 82 -22 148 50 210 38 33 40 37 34 75 -7
47 9 81 79 164 l42 50 0 117 c0 99 3 122 21 156 61 115 73 145 83 199 11 60
30 92 66 107 33 13 95 10 132 -7z m-1743 -4068 c81 -21 166 -72 166 -100 0 -7
-18 -34 -40 -59 l-41 -46 -51 32 c-42 26 -63 32 -124 35 -91 5 -132 -8 -183
-60 -106 -105 -85 -283 42 -362 36 -22 63 -30 116 -34 71 -5 97 4 199 69 22
13 25 12 53 -21 65 -76 66 -79 33 -106 -197 -168 -544 -94 -650 139 -24 54
-28 74 -28 157 -1 109 15 155 80 229 101 116 272 167 428 127z m718 3 c179
-38 295 -165 306 -335 14 -216 -114 -372 -335 -406 -156 -25 -330 49 -408 172
-59 94 -71 253 -27 353 23 53 84 122 143 163 77 53 213 76 321 53z m570 -1
c17 -13 221 -323 230 -349 3 -8 23 15 52 61 27 41 80 123 119 183 l71 107 78
0 78 0 0 -360 0 -360 -75 0 c-71 0 -75 1 -76 23 0 12 0 84 1 159 1 76 -1 167
-5 203 l-7 65 -105 -168 c-57 -92 -108 -171 -113 -176 -14 -14 -49 31 -150
194 l-95 153 -3 -227 -2 -226 -81 0 -81 0 6 203 c3 111 5 274 5 362 l1 161 68
2 c43 2 73 -2 84 -10z m1175 1 c79 -14 149 -58 180 -114 51 -92 36 -219 -34
-287 -59 -58 -113 -76 -241 -84 -129 -8 -122 1 -122 -141 l0 -93 -85 0 -85 0
0 365 0 365 162 0 c89 0 190 -5 225 -11z m774 -25 c99 -47 139 -112 139 -223
-1 -88 -39 -154 -111 -192 l-26 -14 88 -125 c48 -69 88 -128 88 -132 1 -5 -41
-8 -92 -8 l-93 0 -83 125 -83 126 -56 -3 -57 -3 -6 -115 c-4 -63 -7 -118 -8
-122 0 -5 -35 -8 -76 -8 l-75 0 0 365 0 365 193 -2 192 -3 66 -31z m713 -46
c74 -162 276 -633 276 -643 0 -3 -38 -5 -84 -5 l-83 0 -32 70 -31 71 -151 -3
-151 -3 -27 -65 -28 -65 -88 -3 c-68 -2 -86 0 -82 10 3 7 51 121 107 253 56
132 122 288 147 348 l45 107 75 0 74 0 33 -72z m-522 -867 c63 -24 147 -94
183 -152 63 -98 72 -254 21 -361 -92 -195 -365 -273 -582 -167 -74 37 -123 85
-160 159 -26 50 -28 65 -29 165 0 98 3 116 26 165 48 102 114 160 226 200 78
28 230 23 315 -9z m-3022 -231 c0 -142 -5 -271 -11 -300 -24 -111 -126 -190
-244 -190 -78 0 -151 22 -194 58 -39 32 -36 44 22 100 l34 33 34 -20 c38 -23
114 -28 140 -8 45 34 49 63 49 327 l0 250 85 0 85 0 0 -250z m326 13 c0 -200
2 -243 16 -268 65 -121 242 -122 305 -2 14 27 17 68 17 269 l1 238 88 0 87 0
0 -234 c0 -256 -8 -322 -45 -378 -78 -117 -279 -167 -445 -110 -84 29 -132 68
-167 140 l-28 57 -3 263 -4 262 89 0 88 0 1 -237z m920 90 c65 -81 151 -184
189 -229 l70 -83 3 230 2 229 85 0 85 0 0 -365 0 -365 -83 0 -82 0 -114 140
c-62 77 -145 181 -182 230 l-69 91 0 -215 c0 -118 -3 -221 -6 -230 -5 -13 -22
-16 -85 -16 l-79 0 0 365 0 365 74 0 73 0 119 -147z m1164 77 l0 -70 -110 0
-110 0 -2 -122 c-2 -68 -3 -168 -3 -223 0 -55 -2 -133 -3 -172 l-2 -73 -85 0
-85 0 0 295 0 295 -110 0 -110 0 0 70 0 70 310 0 310 0 0 -70z"/>
<path d="M1785 3256 c-64 -29 -115 -110 -115 -183 1 -73 65 -167 133 -192 70
-27 159 -1 214 62 36 41 48 86 41 158 -12 120 -161 205 -273 155z"/>
<path d="M2955 3253 c-72 -38 -105 -94 -105 -178 0 -199 238 -278 346 -116 29
44 40 109 30 166 -8 43 -68 113 -113 132 -43 18 -121 16 -158 -4z"/>
<path d="M1095 2230 c-133 -31 -205 -163 -164 -301 46 -152 252 -208 370 -102
100 91 112 225 28 326 -49 60 -157 95 -234 77z"/>
<path d="M2780 2135 l0 -115 88 0 c119 0 162 28 162 104 0 91 -49 126 -172
126 l-78 0 0 -115z"/>
<path d="M3470 2135 l0 -115 80 0 c91 0 137 15 168 55 25 32 28 62 8 109 -19
46 -73 66 -176 66 l-80 0 0 -115z"/>
<path d="M4366 2171 c-4 -5 -13 -27 -20 -48 -8 -21 -28 -75 -45 -120 l-30 -83
104 0 104 0 -19 53 c-20 58 -78 199 -84 205 -2 2 -7 -1 -10 -7z"/>
<path d="M3718 1310 c-117 -35 -185 -157 -158 -284 14 -69 82 -150 138 -166
136 -37 272 23 311 139 30 91 -2 209 -74 268 -56 46 -147 64 -217 43z"/>
</g>
</svg>
